<mxfile host="Electron" modified="2024-02-08T12:33:37.263Z" agent="Mozilla/5.0 (Windows NT 10.0; Win64; x64) AppleWebKit/537.36 (KHTML, like Gecko) draw.io/23.0.2 Chrome/120.0.6099.109 Electron/28.1.0 Safari/537.36" etag="W8Fgf8KDIZ2TND3YrtoC" version="23.0.2" type="device">
  <diagram id="C5RBs43oDa-KdzZeNtuy" name="Page-1">
    <mxGraphModel dx="1052" dy="518" grid="1" gridSize="10" guides="1" tooltips="1" connect="1" arrows="1" fold="1" page="1" pageScale="1" pageWidth="827" pageHeight="1169" math="0" shadow="0">
      <root>
        <mxCell id="WIyWlLk6GJQsqaUBKTNV-0" />
        <mxCell id="WIyWlLk6GJQsqaUBKTNV-1" parent="WIyWlLk6GJQsqaUBKTNV-0" />
        <mxCell id="mEtQLdmwnbCHPY23W7S9-0" value="&lt;font style=&quot;font-size: 36px;&quot;&gt;&lt;b style=&quot;&quot;&gt;Components&lt;/b&gt;&lt;/font&gt;" style="text;html=1;strokeColor=none;fillColor=none;align=center;verticalAlign=middle;whiteSpace=wrap;rounded=0;" vertex="1" parent="WIyWlLk6GJQsqaUBKTNV-1">
          <mxGeometry x="380" y="10" width="94" height="30" as="geometry" />
        </mxCell>
        <mxCell id="mEtQLdmwnbCHPY23W7S9-3" value="" style="edgeStyle=orthogonalEdgeStyle;rounded=0;orthogonalLoop=1;jettySize=auto;html=1;entryX=0;entryY=0.5;entryDx=0;entryDy=0;entryPerimeter=0;" edge="1" parent="WIyWlLk6GJQsqaUBKTNV-1" source="mEtQLdmwnbCHPY23W7S9-1" target="mEtQLdmwnbCHPY23W7S9-2">
          <mxGeometry relative="1" as="geometry" />
        </mxCell>
        <mxCell id="mEtQLdmwnbCHPY23W7S9-1" value="SignIn- &quot;/signin&quot;" style="html=1;whiteSpace=wrap;strokeColor=none;fillColor=#0079D6;labelPosition=center;verticalLabelPosition=middle;verticalAlign=top;align=center;fontSize=12;outlineConnect=0;spacingTop=-6;fontColor=#FFFFFF;sketch=0;shape=mxgraph.sitemap.page;" vertex="1" parent="WIyWlLk6GJQsqaUBKTNV-1">
          <mxGeometry x="20" y="150" width="120" height="90" as="geometry" />
        </mxCell>
        <mxCell id="mEtQLdmwnbCHPY23W7S9-2" value="SignUp- &quot;/signup&quot;" style="html=1;whiteSpace=wrap;strokeColor=none;fillColor=#0079D6;labelPosition=center;verticalLabelPosition=middle;verticalAlign=top;align=center;fontSize=12;outlineConnect=0;spacingTop=-6;fontColor=#FFFFFF;sketch=0;shape=mxgraph.sitemap.page;" vertex="1" parent="WIyWlLk6GJQsqaUBKTNV-1">
          <mxGeometry x="200" y="90" width="120" height="90" as="geometry" />
        </mxCell>
        <mxCell id="mEtQLdmwnbCHPY23W7S9-4" value="Home- &quot;/&quot;" style="html=1;whiteSpace=wrap;strokeColor=none;fillColor=#0079D6;labelPosition=center;verticalLabelPosition=middle;verticalAlign=top;align=center;fontSize=12;outlineConnect=0;spacingTop=-6;fontColor=#FFFFFF;sketch=0;shape=mxgraph.sitemap.page;" vertex="1" parent="WIyWlLk6GJQsqaUBKTNV-1">
          <mxGeometry x="200" y="250" width="120" height="270" as="geometry" />
        </mxCell>
        <mxCell id="mEtQLdmwnbCHPY23W7S9-6" value="" style="edgeStyle=orthogonalEdgeStyle;rounded=0;orthogonalLoop=1;jettySize=auto;html=1;exitX=1;exitY=0.75;exitDx=0;exitDy=0;exitPerimeter=0;entryX=0;entryY=0.5;entryDx=0;entryDy=0;entryPerimeter=0;" edge="1" parent="WIyWlLk6GJQsqaUBKTNV-1" source="mEtQLdmwnbCHPY23W7S9-1" target="mEtQLdmwnbCHPY23W7S9-4">
          <mxGeometry relative="1" as="geometry">
            <mxPoint x="160" y="270" as="sourcePoint" />
            <mxPoint x="280" y="200" as="targetPoint" />
          </mxGeometry>
        </mxCell>
        <mxCell id="mEtQLdmwnbCHPY23W7S9-7" value="" style="rounded=1;whiteSpace=wrap;html=1;" vertex="1" parent="WIyWlLk6GJQsqaUBKTNV-1">
          <mxGeometry x="210" y="310" width="100" height="50" as="geometry" />
        </mxCell>
        <mxCell id="mEtQLdmwnbCHPY23W7S9-11" value="BillBoard" style="rounded=1;whiteSpace=wrap;html=1;" vertex="1" parent="WIyWlLk6GJQsqaUBKTNV-1">
          <mxGeometry x="210" y="365" width="100" height="40" as="geometry" />
        </mxCell>
        <mxCell id="mEtQLdmwnbCHPY23W7S9-18" value="" style="rounded=1;whiteSpace=wrap;html=1;" vertex="1" parent="WIyWlLk6GJQsqaUBKTNV-1">
          <mxGeometry x="200" y="410" width="120" height="70" as="geometry" />
        </mxCell>
        <mxCell id="mEtQLdmwnbCHPY23W7S9-19" value="MovieItem" style="rounded=1;whiteSpace=wrap;html=1;" vertex="1" parent="WIyWlLk6GJQsqaUBKTNV-1">
          <mxGeometry x="205" y="440" width="110" height="20" as="geometry" />
        </mxCell>
        <mxCell id="mEtQLdmwnbCHPY23W7S9-20" value="Carousel" style="text;html=1;strokeColor=none;fillColor=none;align=center;verticalAlign=middle;whiteSpace=wrap;rounded=0;" vertex="1" parent="WIyWlLk6GJQsqaUBKTNV-1">
          <mxGeometry x="230" y="410" width="60" height="20" as="geometry" />
        </mxCell>
        <mxCell id="mEtQLdmwnbCHPY23W7S9-21" value="Footer" style="rounded=1;whiteSpace=wrap;html=1;" vertex="1" parent="WIyWlLk6GJQsqaUBKTNV-1">
          <mxGeometry x="205" y="500" width="105" height="20" as="geometry" />
        </mxCell>
        <mxCell id="mEtQLdmwnbCHPY23W7S9-23" value="Footer" style="rounded=1;whiteSpace=wrap;html=1;" vertex="1" parent="WIyWlLk6GJQsqaUBKTNV-1">
          <mxGeometry x="27.5" y="220" width="105" height="20" as="geometry" />
        </mxCell>
        <mxCell id="mEtQLdmwnbCHPY23W7S9-24" value="Footer" style="rounded=1;whiteSpace=wrap;html=1;" vertex="1" parent="WIyWlLk6GJQsqaUBKTNV-1">
          <mxGeometry x="207.5" y="160" width="105" height="20" as="geometry" />
        </mxCell>
        <mxCell id="mEtQLdmwnbCHPY23W7S9-26" value="SignIn" style="rounded=1;whiteSpace=wrap;html=1;" vertex="1" parent="WIyWlLk6GJQsqaUBKTNV-1">
          <mxGeometry x="30" y="175" width="100" height="40" as="geometry" />
        </mxCell>
        <mxCell id="mEtQLdmwnbCHPY23W7S9-27" value="SignUp" style="rounded=1;whiteSpace=wrap;html=1;" vertex="1" parent="WIyWlLk6GJQsqaUBKTNV-1">
          <mxGeometry x="212.5" y="115" width="100" height="40" as="geometry" />
        </mxCell>
        <mxCell id="mEtQLdmwnbCHPY23W7S9-28" value="MyList- &quot;/mylist&quot;" style="html=1;whiteSpace=wrap;strokeColor=none;fillColor=#0079D6;labelPosition=center;verticalLabelPosition=middle;verticalAlign=top;align=center;fontSize=12;outlineConnect=0;spacingTop=-6;fontColor=#FFFFFF;sketch=0;shape=mxgraph.sitemap.page;" vertex="1" parent="WIyWlLk6GJQsqaUBKTNV-1">
          <mxGeometry x="413" y="315" width="120" height="90" as="geometry" />
        </mxCell>
        <mxCell id="mEtQLdmwnbCHPY23W7S9-29" value="Footer" style="rounded=1;whiteSpace=wrap;html=1;" vertex="1" parent="WIyWlLk6GJQsqaUBKTNV-1">
          <mxGeometry x="420.5" y="385" width="105" height="20" as="geometry" />
        </mxCell>
        <mxCell id="mEtQLdmwnbCHPY23W7S9-30" value="MovieItem" style="rounded=1;whiteSpace=wrap;html=1;" vertex="1" parent="WIyWlLk6GJQsqaUBKTNV-1">
          <mxGeometry x="423" y="340" width="100" height="40" as="geometry" />
        </mxCell>
        <mxCell id="mEtQLdmwnbCHPY23W7S9-31" value="" style="endArrow=classic;html=1;rounded=0;entryX=0;entryY=0.5;entryDx=0;entryDy=0;entryPerimeter=0;" edge="1" parent="WIyWlLk6GJQsqaUBKTNV-1" target="mEtQLdmwnbCHPY23W7S9-28">
          <mxGeometry width="50" height="50" relative="1" as="geometry">
            <mxPoint x="320" y="360" as="sourcePoint" />
            <mxPoint x="240" y="390" as="targetPoint" />
            <Array as="points" />
          </mxGeometry>
        </mxCell>
        <mxCell id="mEtQLdmwnbCHPY23W7S9-32" value="Watch- &quot;/{YouTubeTrailerLink}" style="html=1;whiteSpace=wrap;strokeColor=none;fillColor=#0079D6;labelPosition=center;verticalLabelPosition=middle;verticalAlign=top;align=center;fontSize=12;outlineConnect=0;spacingTop=-6;fontColor=#FFFFFF;sketch=0;shape=mxgraph.sitemap.page;" vertex="1" parent="WIyWlLk6GJQsqaUBKTNV-1">
          <mxGeometry x="414" y="430" width="120" height="130" as="geometry" />
        </mxCell>
        <mxCell id="mEtQLdmwnbCHPY23W7S9-33" value="Footer" style="rounded=1;whiteSpace=wrap;html=1;" vertex="1" parent="WIyWlLk6GJQsqaUBKTNV-1">
          <mxGeometry x="421.5" y="530" width="105" height="20" as="geometry" />
        </mxCell>
        <mxCell id="mEtQLdmwnbCHPY23W7S9-34" value="" style="rounded=1;whiteSpace=wrap;html=1;" vertex="1" parent="WIyWlLk6GJQsqaUBKTNV-1">
          <mxGeometry x="425.5" y="480" width="100" height="40" as="geometry" />
        </mxCell>
        <mxCell id="mEtQLdmwnbCHPY23W7S9-35" value="" style="endArrow=classic;html=1;rounded=0;" edge="1" parent="WIyWlLk6GJQsqaUBKTNV-1">
          <mxGeometry width="50" height="50" relative="1" as="geometry">
            <mxPoint x="310" y="453.82" as="sourcePoint" />
            <mxPoint x="410" y="454" as="targetPoint" />
            <Array as="points" />
          </mxGeometry>
        </mxCell>
        <mxCell id="mEtQLdmwnbCHPY23W7S9-40" value="" style="endArrow=classic;html=1;rounded=0;entryX=1.034;entryY=0.169;entryDx=0;entryDy=0;entryPerimeter=0;" edge="1" parent="WIyWlLk6GJQsqaUBKTNV-1" target="mEtQLdmwnbCHPY23W7S9-32">
          <mxGeometry width="50" height="50" relative="1" as="geometry">
            <mxPoint x="523" y="360.11" as="sourcePoint" />
            <mxPoint x="590" y="510" as="targetPoint" />
            <Array as="points">
              <mxPoint x="590" y="360" />
              <mxPoint x="590" y="452" />
            </Array>
          </mxGeometry>
        </mxCell>
        <mxCell id="mEtQLdmwnbCHPY23W7S9-41" value="search" style="rounded=1;whiteSpace=wrap;html=1;" vertex="1" parent="WIyWlLk6GJQsqaUBKTNV-1">
          <mxGeometry x="230" y="330" width="60" height="20" as="geometry" />
        </mxCell>
        <mxCell id="mEtQLdmwnbCHPY23W7S9-42" value="NavBar" style="text;html=1;strokeColor=none;fillColor=none;align=center;verticalAlign=middle;whiteSpace=wrap;rounded=0;" vertex="1" parent="WIyWlLk6GJQsqaUBKTNV-1">
          <mxGeometry x="230" y="310" width="60" height="20" as="geometry" />
        </mxCell>
        <mxCell id="mEtQLdmwnbCHPY23W7S9-43" value="" style="edgeStyle=orthogonalEdgeStyle;rounded=0;orthogonalLoop=1;jettySize=auto;html=1;" edge="1" parent="WIyWlLk6GJQsqaUBKTNV-1" source="mEtQLdmwnbCHPY23W7S9-2" target="mEtQLdmwnbCHPY23W7S9-4">
          <mxGeometry relative="1" as="geometry">
            <mxPoint x="502" y="140" as="sourcePoint" />
            <mxPoint x="352" y="240" as="targetPoint" />
          </mxGeometry>
        </mxCell>
        <mxCell id="mEtQLdmwnbCHPY23W7S9-46" value="" style="endArrow=classic;html=1;rounded=0;entryX=1;entryY=1;entryDx=0;entryDy=0;" edge="1" parent="WIyWlLk6GJQsqaUBKTNV-1" target="mEtQLdmwnbCHPY23W7S9-18">
          <mxGeometry width="50" height="50" relative="1" as="geometry">
            <mxPoint x="413" y="480" as="sourcePoint" />
            <mxPoint x="517" y="489.18" as="targetPoint" />
            <Array as="points" />
          </mxGeometry>
        </mxCell>
        <mxCell id="mEtQLdmwnbCHPY23W7S9-47" value="" style="endArrow=classic;html=1;rounded=0;exitX=0.5;exitY=0;exitDx=0;exitDy=0;exitPerimeter=0;entryX=0.5;entryY=1;entryDx=0;entryDy=0;" edge="1" parent="WIyWlLk6GJQsqaUBKTNV-1" source="mEtQLdmwnbCHPY23W7S9-32" target="mEtQLdmwnbCHPY23W7S9-29">
          <mxGeometry width="50" height="50" relative="1" as="geometry">
            <mxPoint x="474" y="419.58" as="sourcePoint" />
            <mxPoint x="574" y="419.76" as="targetPoint" />
            <Array as="points" />
          </mxGeometry>
        </mxCell>
      </root>
    </mxGraphModel>
  </diagram>
</mxfile>
